PathFileType	4	(X/Y/Z)	Patient5_TMGait_0pt45_1_left_03.trc.trc
DataRate	CameraRate	NumFrames	NumMarkers	Units	OrigDataRate	OrigDataStartFrame	OrigNumFrames
58.091286307054	58.091286307054	4	32	mm	58.091286307054	124	       141
Frame#	Time	R.ASIS			L.ASIS			Chest			R.Shoulder			Neck			L.Shoulder			L.Elbow			L.Wrist			R.Elbow			R.Wrist			L.Thigh.Superior			L.Thigh.Lateral			L.Thigh.Inferior			L.Patella			L.Shank.Superior			L.Shank.Lateral			L.Shank.Inferior			L.Heel			L.Midfoot.Lateral			L.Midfoot.Superior			L.Toe			R.Thigh.Superior			R.Thigh.Lateral			R.Thigh.Inferior			R.Patella			R.Shank.Superior			R.Shank.Lateral			R.Shank.Inferior			R.Heel			R.Midfoot.Lateral			R.Midfoot.Superior			R.Toe			
		X1	Y1	Z1	X2	Y2	Z2	X3	Y3	Z3	X4	Y4	Z4	X5	Y5	Z5	X6	Y6	Z6	X7	Y7	Z7	X8	Y8	Z8	X9	Y9	Z9	X10	Y10	Z10	X11	Y11	Z11	X12	Y12	Z12	X13	Y13	Z13	X14	Y14	Z14	X15	Y15	Z15	X16	Y16	Z16	X17	Y17	Z17	X18	Y18	Z18	X19	Y19	Z19	X20	Y20	Z20	X21	Y21	Z21	X22	Y22	Z22	X23	Y23	Z23	X24	Y24	Z24	X25	Y25	Z25	X26	Y26	Z26	X27	Y27	Z27	X28	Y28	Z28	X29	Y29	Z29	X30	Y30	Z30	X31	Y31	Z31	X32	Y32	Z32	

124	5.497357142857	943.174115022089	957.538675678686	609.588510379922	937.779652260702	945.765412611724	371.492604239273	1025.418583021032	1416.051392227583	498.389406068994	938.782633763529	1479.675304379311	670.624505959523	895.503651837167	1539.721822651635	488.340001099580	954.178475380204	1486.425827604157	305.067907688419	847.033756594094	1171.262183118377	186.911951541249	959.101445554067	906.581878900857	178.704920423696	881.312155289189	1163.900265511988	826.656128883113	1086.800764683911	968.005911151765	766.221469813752	991.804198099048	752.924888431319	338.504678999132	942.654353796133	667.079928955623	298.797402508069	1038.784416685012	637.379918958564	354.602567319140	1085.345412691410	529.935862701613	351.247935636087	1070.816078587845	421.077126051109	375.658475866968	1010.875504759741	336.616959139322	308.039094797771	1077.400120499822	294.379586622973	383.549673902632	1012.483846587033	46.600206865922	388.666957970547	1096.742286813001	31.791317673997	320.102027740099	1186.861367894655	107.790620276422	350.216617358691	1296.380745057942	83.224084491752	343.582956130621	917.280800908198	723.576474095274	617.821969779603	814.608784548299	659.260627285343	665.844108509738	882.873310711535	596.054887194977	589.764311405863	865.701961270226	500.587045069952	612.366903592807	812.902572902486	414.444495854296	570.287408219338	734.821047783756	351.200142415549	647.882671319946	784.681026144813	278.237225338480	564.268718974745	645.712444923139	53.920869408325	517.991961999798	719.120957521172	25.502425929455	596.195032358323	826.352022432689	87.209729730278	579.050593203994	929.824464567635	43.839838614760	586.218000477357	
125	5.514571428571	944.523727162390	958.080113930870	608.562037132131	943.465894303275	945.259438591659	370.090246371556	1026.250657390685	1416.614219944360	495.733435671117	936.517647678308	1480.032829379454	666.539886197255	896.050773691857	1539.222927473025	483.486716823513	956.800867952721	1485.765351065380	301.149204289975	852.367293610424	1169.789970114222	182.739272903767	963.830759116032	904.799434040081	176.605034714777	878.028224961900	1163.919946855972	821.942460166420	1083.414542526409	967.234604363818	763.855715609834	997.653445421173	750.404637867459	340.665386375137	947.797513480668	664.813339856835	301.040035085489	1041.817740857220	633.892952253675	359.530042909937	1085.877358509931	526.826781474714	358.850421551025	1070.276813421349	417.731682159874	381.442894321521	1012.993656921795	334.018084149802	311.245380172223	1076.006483920854	291.084195772620	388.307920735383	1008.886780287800	46.602395373780	390.203031928676	1094.038333361282	30.461937009768	323.042662333011	1185.376217305830	103.239362414500	356.878680880592	1294.568379848150	75.678413791640	352.049331961493	918.659302139340	722.987923026746	616.374019761862	815.131861019663	659.395394824154	663.936794717011	883.634394032268	595.467922237502	588.690537270996	865.184251217777	499.842171214221	611.415938972431	811.313858854269	413.605467485097	569.237822685783	731.554929113742	352.014592737739	646.520786698543	780.671671597171	277.901277420809	563.610301150290	638.072317084875	54.363710862635	518.004649878125	711.497344799189	25.677445528707	596.098972522772	818.775464170570	87.427574721548	579.169744931395	922.126432401547	43.706903309628	586.231205956923	
126	5.531785714286	945.942150093722	958.868966086331	607.205729660187	949.151472956706	945.268966988078	368.497991796373	1027.221105716995	1417.603351619560	492.900176160946	934.215669572122	1480.790562859908	662.280070052953	896.713462505044	1539.119738694116	478.432113729642	959.567044843283	1485.457258495956	297.063732460098	858.096019707710	1168.629442202073	178.414436380391	968.923345871165	903.331840916937	174.119392439773	874.051062195108	1164.263005726865	816.637434100124	1079.710492157686	967.187146746663	761.255098036912	1004.338559399727	749.456901412057	343.457154548822	954.656518643797	664.184622250031	302.857470658202	1045.993582490669	631.961048287028	364.565717351936	1087.552888765047	524.554951949243	365.954475128489	1069.943229907006	415.058391324164	386.249038737104	1015.395699270376	332.635382624157	312.800281284613	1073.698187351458	288.348796147948	391.878571527702	1002.504785788091	47.158729095829	390.917067888340	1088.270253604451	29.420742861971	324.867220858845	1181.233749289497	98.835212704519	361.956186832326	1289.953962772513	67.798685401657	358.614240795569	920.176143174510	722.557964681754	614.746023566905	815.855040698106	659.659765034338	661.871679175573	884.671376427713	595.073000497030	587.527681794364	865.002071910308	499.282278256519	610.434073685608	810.021961797078	412.876640295188	568.167524721964	728.554629512685	353.050345127473	645.120689069309	776.849766033861	277.750925643341	562.978087497975	630.529005898861	55.198882706688	518.040128694947	703.921344170623	26.021878263117	595.995497609798	811.353094664123	87.695754549849	579.333208656359	914.463297836395	43.556660002876	586.269713509323	
127	5.549000000000	947.375801958919	959.895463777468	605.485908279891	954.633179397759	945.823763889062	366.672467772351	1028.399910673919	1418.976858094197	489.903831525089	932.157200963014	1482.010025288474	657.904381756878	897.608995082250	1539.505281207280	473.263237935191	962.574470174449	1485.517294326468	292.873171169842	864.162122783652	1167.849083634450	174.033658867080	974.360717024486	902.270086944633	171.236379693665	869.415628448757	1165.033655840816	810.723802674744	1075.647514740848	967.828696800767	758.496958118445	1011.349876992887	749.999447200806	346.349128678549	962.574508275207	665.049094870492	303.951554274586	1050.919228395896	631.513989436364	369.028861387027	1090.049312043786	523.146379383463	371.806601238009	1069.856646429720	413.165675842831	389.674629369745	1017.869038245151	332.309355425048	312.729466951686	1070.887732311139	286.322133492240	394.052499617024	994.588295670750	47.909707662786	390.926244222531	1080.731985324526	28.614831560647	325.654826264982	1175.334541022331	95.107250680920	365.235974551127	1283.559593399428	60.732075776019	363.043640591166	921.680046511925	722.432500665793	612.993211350611	816.643284044176	660.167634458832	659.680337185534	885.873103370480	594.982908652867	586.319557617192	865.108748194700	499.005422076331	609.486549343654	808.976557495982	412.348365201503	567.131693297835	725.772872238059	354.383717474758	643.715283967226	773.203236845216	277.867884024296	562.408996776839	623.128318759638	56.589718694439	518.089640516151	696.397165386267	26.630700126027	595.887242115067	804.141284235805	87.993364377411	579.567232049716	906.839078610433	43.383768916659	586.328992769155	
